<svg xmlns="http://www.w3.org/2000/svg" viewBox="0 0 59 41" width="59" height="41">
	<style>
		tspan { white-space:pre }
		.shp0 { fill: #fcb13b } 
	</style>
	<path id="Forma 1" class="shp0" d="M58.05 12.86C57.77 12.53 57.35 12.33 56.9 12.33L51.28 12.33C49.89 8.75 48.08 5.24 46.02 3.92C38.91 -0.66 20.05 -0.66 12.93 3.92C10.88 5.24 9.08 8.75 7.68 12.33L2.05 12.33C1.61 12.33 1.19 12.53 0.91 12.86C0.63 13.2 0.51 13.64 0.6 14.07L1.44 18.02C1.58 18.69 2.19 19.17 2.89 19.17L4.55 19.17C2.94 20.98 2.16 23.27 2.15 25.55C2.14 28.38 3.24 30.93 5.25 32.74C5.27 32.75 5.29 32.77 5.31 32.79L5.31 38.31C5.31 39.51 6.31 40.48 7.53 40.48L12.72 40.48C13.95 40.48 14.94 39.51 14.94 38.31L14.94 36.09L44.01 36.09L44.01 38.31C44.01 39.51 45.01 40.48 46.23 40.48L51.42 40.48C52.65 40.48 53.64 39.51 53.64 38.31L53.64 32.9C55.77 30.99 56.79 28.37 56.8 25.75C56.81 23.39 55.99 21.02 54.29 19.17L56.07 19.17C56.77 19.17 57.38 18.69 57.52 18.01L58.35 14.07C58.44 13.64 58.33 13.2 58.05 12.86ZM15.37 7.54C21.04 3.9 37.92 3.9 43.58 7.54C44.68 8.25 46.1 11.1 47.4 14.6L11.56 14.6C12.85 11.1 14.27 8.25 15.37 7.54ZM8.73 26.1C8.73 23.74 10.69 21.83 13.1 21.83C15.51 21.83 17.47 23.74 17.47 26.1C17.47 28.46 15.51 30.37 13.1 30.37C10.69 30.37 8.73 28.46 8.73 26.1ZM45.91 30.37C43.5 30.37 41.55 28.46 41.55 26.1C41.55 23.74 43.5 21.83 45.91 21.83C48.33 21.83 50.28 23.74 50.28 26.1C50.28 28.46 48.32 30.37 45.91 30.37Z" />
</svg>