<svg xmlns="http://www.w3.org/2000/svg" viewBox="0 0 34 44" width="34" height="44">
	<style>
		tspan { white-space:pre }
		.shp0 { fill: #ffffff } 
	</style>
	<path id="Forma 1" class="shp0" d="M27.62 18.46L9.92 18.46C9.53 18.46 9.21 18.78 9.21 19.17C9.21 19.56 9.53 19.88 9.92 19.88L27.62 19.88C28.02 19.88 28.33 19.56 28.33 19.17C28.33 18.78 28.02 18.46 27.62 18.46ZM9.92 14.21L17 14.21C17.39 14.21 17.71 13.89 17.71 13.5C17.71 13.11 17.39 12.79 17 12.79L9.92 12.79C9.53 12.79 9.21 13.11 9.21 13.5C9.21 13.89 9.53 14.21 9.92 14.21ZM27.62 24.12L9.92 24.12C9.53 24.12 9.21 24.44 9.21 24.83C9.21 25.22 9.53 25.54 9.92 25.54L27.62 25.54C28.02 25.54 28.33 25.22 28.33 24.83C28.33 24.44 28.02 24.12 27.62 24.12ZM27.62 29.79L9.92 29.79C9.53 29.79 9.21 30.11 9.21 30.5C9.21 30.89 9.53 31.21 9.92 31.21L27.62 31.21C28.02 31.21 28.33 30.89 28.33 30.5C28.33 30.11 28.02 29.79 27.62 29.79ZM27.62 35.46L9.92 35.46C9.53 35.46 9.21 35.77 9.21 36.17C9.21 36.56 9.53 36.87 9.92 36.87L27.62 36.87C28.02 36.87 28.33 36.56 28.33 36.17C28.33 35.77 28.02 35.46 27.62 35.46ZM30.46 11.08L30.46 0.75L0 0.75L0 39.71L3.54 39.71L3.54 43.25L34 43.25L34 14.62L30.46 11.08ZM24.08 6.71L30.46 13.09L31.58 14.21L24.08 14.21L24.08 6.71ZM1.42 38.29L1.42 2.17L29.04 2.17L29.04 9.67L23.67 4.29L3.54 4.29L3.54 38.29L1.42 38.29ZM4.96 41.83L4.96 39.71L4.96 5.71L22.67 5.71L22.67 15.63L32.58 15.63L32.58 41.83L4.96 41.83Z" />
</svg>