<svg xmlns="http://www.w3.org/2000/svg" viewBox="0 0 44 40" width="44" height="40">
	<style>
		tspan { white-space:pre }
		.shp0 { fill: #ffffff } 
	</style>
	<path id="Shape 1" class="shp0" d="M38.24 33.57L32.98 28.31C30.13 25.47 25.5 25.47 22.66 28.31L20.55 30.43L14.56 30.38C13.94 30.38 13.35 30.61 12.91 31.05C12.81 31.15 12.72 31.25 12.65 31.36L9.6 28.31C8.7 27.41 7.27 27.36 6.35 28.2C5.87 28.64 5.6 29.23 5.58 29.88C5.57 30.51 5.82 31.13 6.27 31.58L7.47 32.78C7.73 33.05 8.17 33.05 8.43 32.78C8.7 32.52 8.7 32.09 8.43 31.82L7.23 30.62C7.04 30.43 6.94 30.18 6.95 29.91C6.95 29.64 7.07 29.39 7.27 29.21C7.64 28.87 8.26 28.9 8.64 29.28L12.22 32.86C12.22 32.86 12.22 32.86 12.22 32.86C12.29 34.07 13.3 35.06 14.53 35.07L20.78 35.14C20.78 35.14 20.78 35.14 20.78 35.14C21.16 35.14 21.46 34.82 21.47 34.44C21.47 34.07 21.17 33.75 20.79 33.75L14.54 33.69C14 33.69 13.57 33.25 13.58 32.71C13.58 32.45 13.68 32.21 13.87 32.03C14.05 31.85 14.3 31.75 14.55 31.75L20.63 31.79C20.86 31.85 21.11 31.79 21.29 31.62L23.63 29.28C25.94 26.97 29.7 26.96 32.01 29.28L37.27 34.54C37.4 34.67 37.58 34.74 37.75 34.74C37.93 34.74 38.1 34.67 38.24 34.54C38.5 34.27 38.5 33.84 38.24 33.57ZM32.98 38.83L30.05 35.91C29.89 35.75 29.66 35.68 29.44 35.72L23.66 36.87L13.49 36.87L11.35 34.74C11.09 34.47 10.66 34.47 10.39 34.74C10.12 35.01 10.12 35.44 10.39 35.71L12.73 38.04C12.85 38.17 13.03 38.24 13.21 38.24L23.73 38.24C23.77 38.24 23.82 38.24 23.86 38.23L29.35 37.13L32.01 39.8C32.14 39.93 32.32 40 32.49 40C32.67 40 32.84 39.93 32.98 39.8C33.24 39.53 33.24 39.1 32.98 38.83ZM42.43 0L36.61 0C36.23 0 35.92 0.31 35.92 0.68C35.92 1.06 36.23 1.37 36.61 1.37L41.7 1.37L41.7 23.31L2.3 23.31L2.3 1.37L33.69 1.37C34.07 1.37 34.38 1.06 34.38 0.68C34.38 0.31 34.07 0 33.69 0L1.66 0C1.28 0 0.93 0.26 0.93 0.64L0.93 23.94C0.93 24.32 1.28 24.67 1.66 24.67L42.43 24.67C42.81 24.67 43.07 24.32 43.07 23.94L43.07 0.64C43.07 0.26 42.81 0 42.43 0ZM39.5 7.24C37.46 7.24 35.82 5.61 35.82 3.57C35.82 3.2 35.53 2.91 35.15 2.91L8.94 2.91C8.56 2.91 8.26 3.2 8.26 3.57C8.26 5.61 6.58 7.25 4.55 7.25C4.17 7.25 3.84 7.54 3.84 7.92L3.84 16.66C3.84 17.04 4.17 17.34 4.55 17.34C6.58 17.34 8.25 19.02 8.25 21.05C8.25 21.43 8.56 21.76 8.94 21.76L35.15 21.76C35.53 21.76 35.83 21.43 35.83 21.05C35.83 19.02 37.46 17.36 39.5 17.36C39.87 17.36 40.16 17.04 40.16 16.66L40.16 7.92C40.16 7.54 39.87 7.24 39.5 7.24ZM38.79 16.02C36.61 16.33 34.82 18.12 34.51 20.39L9.58 20.39C9.27 18.12 7.48 16.33 5.21 16.02L5.21 8.56C7.48 8.25 9.27 6.46 9.58 4.28L34.51 4.28C34.82 6.46 36.61 8.25 38.79 8.56L38.79 16.02ZM23.5 11.65L22.68 11.65L22.68 7.92L24.96 7.92C25.33 7.92 25.64 7.62 25.64 7.24C25.64 6.86 25.33 6.56 24.96 6.56L22.68 6.56L22.68 5.74C22.68 5.36 22.38 5.05 22 5.05C21.62 5.05 21.32 5.36 21.32 5.74L21.32 6.56L20.59 6.56C19.41 6.56 18.41 7.47 18.41 8.65L18.41 10.83C18.41 12.01 19.41 13.02 20.59 13.02L21.32 13.02L21.32 16.75L19.13 16.75C18.76 16.75 18.45 17.06 18.45 17.43C18.45 17.81 18.76 18.12 19.13 18.12L21.32 18.12L21.32 18.85C21.32 19.22 21.62 19.53 22 19.53C22.38 19.53 22.68 19.22 22.68 18.85L22.68 18.12L23.5 18.12C24.68 18.12 25.59 17.11 25.59 15.93L25.59 13.75C25.59 12.57 24.68 11.65 23.5 11.65ZM21.32 11.65L20.59 11.65C20.16 11.65 19.77 11.26 19.77 10.83L19.77 8.65C19.77 8.22 20.16 7.92 20.59 7.92L21.32 7.92L21.32 11.65ZM24.23 15.93C24.23 16.36 23.93 16.75 23.5 16.75L22.68 16.75L22.68 13.02L23.5 13.02C23.93 13.02 24.23 13.32 24.23 13.75L24.23 15.93L24.23 15.93ZM32.24 9.42C30.66 9.42 29.37 10.71 29.37 12.29C29.37 13.87 30.66 15.16 32.24 15.16C33.82 15.16 35.11 13.87 35.11 12.29C35.11 10.71 33.82 9.42 32.24 9.42ZM32.24 13.79C31.41 13.79 30.74 13.12 30.74 12.29C30.74 11.46 31.41 10.79 32.24 10.79C33.07 10.79 33.74 11.46 33.74 12.29C33.74 13.12 33.07 13.79 32.24 13.79ZM11.85 9.42C10.27 9.42 8.99 10.71 8.99 12.29C8.99 13.87 10.27 15.16 11.85 15.16C13.43 15.16 14.72 13.87 14.72 12.29C14.72 10.71 13.43 9.42 11.85 9.42ZM11.85 13.79C11.02 13.79 10.35 13.12 10.35 12.29C10.35 11.46 11.02 10.79 11.85 10.79C12.68 10.79 13.35 11.46 13.35 12.29C13.35 13.12 12.68 13.79 11.85 13.79ZM33.69 6.56L30.78 6.56C30.41 6.56 30.1 6.86 30.1 7.24C30.1 7.62 30.41 7.92 30.78 7.92L33.69 7.92C34.07 7.92 34.38 7.62 34.38 7.24C34.38 6.86 34.07 6.56 33.69 6.56ZM33.69 16.75L30.78 16.75C30.41 16.75 30.1 17.06 30.1 17.43C30.1 17.81 30.41 18.12 30.78 18.12L33.69 18.12C34.07 18.12 34.38 17.81 34.38 17.43C34.38 17.06 34.07 16.75 33.69 16.75ZM13.31 6.56L10.4 6.56C10.02 6.56 9.71 6.86 9.71 7.24C9.71 7.62 10.02 7.92 10.4 7.92L13.31 7.92C13.69 7.92 13.99 7.62 13.99 7.24C13.99 6.86 13.69 6.56 13.31 6.56ZM13.31 16.75L10.4 16.75C10.02 16.75 9.71 17.06 9.71 17.43C9.71 17.81 10.02 18.12 10.4 18.12L13.31 18.12C13.69 18.12 13.99 17.81 13.99 17.43C13.99 17.06 13.69 16.75 13.31 16.75Z" />
</svg>