<svg xmlns="http://www.w3.org/2000/svg" viewBox="0 0 17 13" width="17" height="13">
	<style>
		tspan { white-space:pre }
		.shp0 { fill: #cccccd } 
	</style>
	<path id="Forma 1" class="shp0" d="M2.33,4.2c0.19,0.14 0.78,0.54 1.75,1.21c0.97,0.67 1.72,1.19 2.23,1.56c0.06,0.04 0.18,0.13 0.36,0.26c0.18,0.13 0.34,0.24 0.46,0.32c0.12,0.08 0.27,0.17 0.44,0.28c0.17,0.1 0.34,0.18 0.49,0.23c0.15,0.05 0.3,0.08 0.43,0.08h0.01h0.01c0.13,0 0.27,-0.03 0.43,-0.08c0.15,-0.05 0.32,-0.13 0.49,-0.23c0.17,-0.1 0.32,-0.19 0.44,-0.28c0.12,-0.08 0.28,-0.19 0.46,-0.32c0.18,-0.13 0.31,-0.22 0.36,-0.26c0.52,-0.36 1.85,-1.29 3.99,-2.77c0.41,-0.29 0.76,-0.64 1.04,-1.05c0.28,-0.41 0.42,-0.84 0.42,-1.29c0,-0.37 -0.14,-0.7 -0.4,-0.96c-0.27,-0.27 -0.59,-0.4 -0.96,-0.4h-12.55c-0.44,0 -0.77,0.15 -1.01,0.44c-0.24,0.3 -0.35,0.66 -0.35,1.11c0,0.36 0.16,0.75 0.47,1.16c0.31,0.42 0.64,0.75 1,0.98zM15.28,5.11c-1.86,1.26 -3.28,2.24 -4.24,2.94c-0.32,0.24 -0.59,0.42 -0.79,0.56c-0.2,0.13 -0.47,0.27 -0.81,0.41c-0.34,0.14 -0.65,0.21 -0.94,0.21h-0.01h-0.01c-0.29,0 -0.6,-0.07 -0.94,-0.21c-0.34,-0.14 -0.6,-0.28 -0.81,-0.41c-0.2,-0.13 -0.46,-0.32 -0.79,-0.56c-0.77,-0.56 -2.18,-1.54 -4.24,-2.94c-0.32,-0.22 -0.61,-0.46 -0.86,-0.74v6.77c0,0.37 0.13,0.7 0.4,0.96c0.27,0.27 0.59,0.4 0.96,0.4h12.55c0.37,0 0.7,-0.13 0.96,-0.4c0.27,-0.27 0.4,-0.59 0.4,-0.96v-6.77c-0.24,0.27 -0.53,0.52 -0.85,0.74z" />
</svg>