<svg xmlns="http://www.w3.org/2000/svg" viewBox="0 0 8 14" width="8" height="14">
	<style>
		tspan { white-space:pre }
		.shp0 { fill: #cccccd } 
	</style>
	<path id="Forma 1" class="shp0" d="M7.51,0l-1.82,0c-2.04,0 -3.36,1.35 -3.36,3.44v1.59h-1.83c-0.16,0 -0.29,0.13 -0.29,0.29v2.3c0,0.16 0.13,0.29 0.29,0.29h1.83v5.81c0,0.16 0.13,0.29 0.29,0.29h2.39c0.16,0 0.29,-0.13 0.29,-0.29v-5.81h2.14c0.16,0 0.29,-0.13 0.29,-0.29l0,-2.3c0,-0.08 -0.03,-0.15 -0.08,-0.2c-0.05,-0.05 -0.13,-0.08 -0.2,-0.08h-2.14v-1.35c0,-0.65 0.15,-0.98 1,-0.98l1.23,0c0.16,0 0.29,-0.13 0.29,-0.29v-2.14c0,-0.16 -0.13,-0.29 -0.29,-0.29z" />
</svg>