<svg xmlns="http://www.w3.org/2000/svg" viewBox="0 0 15 15" width="15" height="15">
	<style>
		tspan { white-space:pre }
		.shp0 { fill: #cccccd } 
	</style>
	<path id="Forma 1" class="shp0" d="M10.63 0.5L4.36 0.5C2.24 0.5 0.5 2.24 0.5 4.36L0.5 10.63C0.5 12.76 2.24 14.5 4.36 14.5L10.63 14.5C12.76 14.5 14.5 12.76 14.5 10.63L14.5 4.36C14.5 2.24 12.76 0.5 10.63 0.5ZM13.26 10.63C13.26 12.08 12.08 13.25 10.63 13.25L4.36 13.25C2.92 13.26 1.74 12.08 1.74 10.63L1.74 4.36C1.74 2.92 2.92 1.74 4.36 1.74L10.63 1.74C12.08 1.74 13.26 2.92 13.26 4.36L13.26 10.63L13.26 10.63ZM7.5 3.89C5.51 3.89 3.89 5.51 3.89 7.5C3.89 9.49 5.51 11.11 7.5 11.11C9.49 11.11 11.11 9.49 11.11 7.5C11.11 5.51 9.49 3.89 7.5 3.89ZM7.5 9.86C6.2 9.86 5.14 8.8 5.14 7.5C5.14 6.2 6.2 5.14 7.5 5.14C8.8 5.14 9.86 6.2 9.86 7.5C9.86 8.8 8.8 9.86 7.5 9.86ZM11.26 2.84C11.02 2.84 10.78 2.94 10.61 3.11C10.44 3.28 10.35 3.51 10.35 3.75C10.35 3.99 10.44 4.23 10.61 4.4C10.78 4.56 11.02 4.66 11.26 4.66C11.5 4.66 11.73 4.56 11.9 4.4C12.07 4.23 12.17 3.99 12.17 3.75C12.17 3.51 12.07 3.28 11.9 3.11C11.73 2.94 11.5 2.84 11.26 2.84Z" />
</svg>