<svg xmlns="http://www.w3.org/2000/svg" viewBox="0 0 41 41" width="41" height="41">
	<style>
		tspan { white-space:pre }
		.shp0 { fill: #ffffff } 
	</style>
	<path id="Forma 1" class="shp0" d="M40.9 24.73C40.9 19.42 38.71 12.47 32.62 9.98L32.62 7.32L34.43 5.87C34.59 5.74 34.69 5.54 34.69 5.33L34.69 1.47C34.69 1.09 34.38 0.78 34 0.78L31.93 0.78C31.74 0.78 31.57 0.85 31.44 0.98L30.55 1.87L29.65 0.98C29.53 0.85 29.35 0.78 29.17 0.78L26.41 0.78C26.22 0.78 26.05 0.85 25.92 0.98L25.03 1.87L24.13 0.98C24.01 0.85 23.83 0.78 23.65 0.78L21.58 0.78C21.2 0.78 20.89 1.09 20.89 1.47L20.89 5.33C20.89 5.54 20.98 5.74 21.15 5.87L22.96 7.32L22.96 9.98C16.87 12.47 14.68 19.42 14.68 24.73C14.66 25.97 14.86 27.21 15.25 28.39C14.95 28.38 14.65 28.37 14.36 28.37L12.61 28.37C12.61 27.99 12.3 27.68 11.92 27.68L6.4 27.68C6.02 27.68 5.71 27.99 5.71 28.37L0.88 28.37L0.88 29.75L5.71 29.75L5.71 36.64L0.88 36.64L0.88 38.02L5.71 38.02C5.71 38.4 6.02 38.71 6.4 38.71L11.92 38.71C12.3 38.71 12.61 38.4 12.61 38.02L12.61 37.76L17.76 39.9C20.57 41.05 23.71 41.08 26.54 40L37.2 35.93C37.83 35.69 38.34 35.21 38.61 34.59C39.02 33.67 38.85 32.58 38.16 31.84C40.02 29.95 41.01 27.37 40.9 24.73ZM11.23 37.33L7.09 37.33L7.09 29.06L11.23 29.06L11.23 37.33ZM22.27 5L22.27 2.16L23.36 2.16L24.54 3.34C24.81 3.6 25.25 3.6 25.51 3.34L26.69 2.16L28.88 2.16L30.06 3.34C30.33 3.6 30.76 3.6 31.03 3.34L32.21 2.16L33.31 2.16L33.31 5L31.68 6.3L23.89 6.3L22.27 5ZM31.24 7.68L31.24 9.74L24.34 9.74L24.34 7.68L31.24 7.68ZM37.34 34.03C37.22 34.32 36.99 34.54 36.7 34.65L26.04 38.71C23.54 39.67 20.76 39.64 18.28 38.63L12.61 36.27L12.61 29.75L14.36 29.75C16.64 29.75 18.9 30.28 20.95 31.3C21.62 31.64 22.37 31.82 23.12 31.82L28.48 31.82C29.05 31.82 29.51 32.29 29.5 32.86C29.5 33.34 29.17 33.75 28.7 33.86C28.61 33.87 28.53 33.89 28.43 33.89L20.2 33.89L20.2 35.26L28.43 35.26C28.45 35.26 28.46 35.26 28.48 35.26C28.49 35.26 28.5 35.26 28.52 35.26C29.07 35.25 29.61 35.14 30.11 34.92L35.88 32.48C36.15 32.36 36.46 32.36 36.74 32.48C37.03 32.6 37.25 32.83 37.36 33.12C37.48 33.41 37.47 33.74 37.34 34.03ZM36.93 31.1C36.4 30.95 35.84 30.99 35.34 31.21L30.87 33.1C30.88 33.02 30.89 32.94 30.89 32.85C30.89 31.52 29.81 30.44 28.48 30.44L23.12 30.44C22.58 30.44 22.05 30.31 21.56 30.07C20.07 29.32 18.46 28.82 16.81 28.56C16.29 27.35 16.04 26.04 16.06 24.73C16.06 19.76 18.09 13.24 23.79 11.12L31.79 11.12C37.49 13.24 39.52 19.76 39.52 24.73C39.63 27.13 38.69 29.46 36.93 31.1ZM8.47 34.58L9.85 34.58L9.85 35.95L8.47 35.95L8.47 34.58ZM29.25 20.54L26.76 19.71C26.49 19.62 26.34 19.33 26.43 19.06C26.5 18.85 26.7 18.71 26.92 18.71L28.65 18.71C28.94 18.71 29.17 18.94 29.17 19.22L29.17 19.68L30.55 19.68L30.55 19.22C30.55 18.18 29.7 17.33 28.65 17.33L28.48 17.33L28.48 15.95L27.1 15.95L27.1 17.33L26.92 17.33C25.87 17.33 25.03 18.18 25.03 19.22C25.03 20.04 25.55 20.76 26.32 21.02L28.82 21.85C29.08 21.94 29.23 22.23 29.14 22.5C29.07 22.71 28.88 22.85 28.65 22.85L26.92 22.85C26.64 22.85 26.41 22.62 26.41 22.34L26.41 21.88L25.03 21.88L25.03 22.34C25.03 23.38 25.87 24.23 26.92 24.23L27.1 24.23L27.1 25.61L28.48 25.61L28.48 24.23L28.65 24.23C29.7 24.23 30.55 23.38 30.55 22.34C30.55 21.52 30.03 20.8 29.25 20.54ZM27.79 13.19C23.6 13.19 20.2 16.59 20.2 20.78C20.2 24.97 23.6 28.36 27.79 28.37C31.98 28.37 35.38 24.97 35.38 20.78C35.38 16.59 31.98 13.19 27.79 13.19ZM27.79 26.99C24.36 26.99 21.58 24.21 21.58 20.78C21.58 17.35 24.36 14.58 27.79 14.57C31.22 14.57 34 17.35 34 20.78C34 24.21 31.22 26.99 27.79 26.99Z" />
</svg>