<svg xmlns="http://www.w3.org/2000/svg" viewBox="0 0 15 14" width="15" height="14">
	<style>
		tspan { white-space:pre }
		.shp0 { fill: #cccccd } 
	</style>
	<path id="Forma 1" class="shp0" d="M13.8,10.56l-2.86,-1.69h-0.01c-0.1,-0.06 -0.23,-0.09 -0.4,-0.09c-0.24,0 -0.44,0.08 -0.62,0.24l-0.84,0.86c-0.02,0.02 -0.05,0.04 -0.1,0.05c-0.04,0.01 -0.08,0.02 -0.1,0.02l-0.19,-0.04c-0.12,-0.02 -0.3,-0.1 -0.53,-0.21c-0.23,-0.12 -0.52,-0.3 -0.87,-0.56c-0.35,-0.25 -0.74,-0.61 -1.18,-1.06c-0.45,-0.44 -0.8,-0.84 -1.05,-1.18c-0.25,-0.34 -0.43,-0.63 -0.55,-0.87c-0.14,-0.27 -0.23,-0.5 -0.27,-0.71c0,-0.03 0.01,-0.07 0.02,-0.11c0.01,-0.04 0.03,-0.08 0.05,-0.1l0.73,-0.73c0.13,-0.13 0.21,-0.29 0.25,-0.47c0.04,-0.19 0.01,-0.36 -0.07,-0.52l-1.58,-3.01c-0.07,-0.11 -0.15,-0.2 -0.25,-0.27c-0.1,-0.07 -0.21,-0.11 -0.34,-0.11c-0.18,0 -0.34,0.07 -0.47,0.21l-1.97,1.97c-0.1,0.09 -0.18,0.21 -0.25,0.35c-0.07,0.14 -0.11,0.28 -0.13,0.42c0,0.02 0,0.12 -0.01,0.3c-0.01,0.18 0.01,0.42 0.06,0.73c0.05,0.31 0.14,0.68 0.28,1.11c0.14,0.43 0.35,0.91 0.62,1.44c0.28,0.53 0.64,1.1 1.1,1.73c0.45,0.62 1.03,1.27 1.72,1.96c0.87,0.88 1.69,1.57 2.46,2.07c0.77,0.5 1.46,0.88 2.06,1.13c0.61,0.25 1.12,0.41 1.54,0.47c0.42,0.06 0.72,0.1 0.91,0.1c0.08,0 0.14,0 0.19,-0.01c0.05,0 0.08,-0.01 0.09,-0.01c0.14,-0.02 0.28,-0.06 0.42,-0.13c0.14,-0.07 0.26,-0.15 0.35,-0.25l1.97,-1.96c0.17,-0.17 0.24,-0.37 0.21,-0.59c-0.04,-0.2 -0.16,-0.36 -0.37,-0.49z" />
</svg>