<svg xmlns="http://www.w3.org/2000/svg" viewBox="0 0 33 42" width="33" height="42">
	<style>
		tspan { white-space:pre }
		.shp0 { fill: #ffffff } 
	</style>
	<path id="Forma 1" class="shp0" d="M22.44 1L0.83 1L0.83 41L32.17 41L32.17 10.72L22.44 1ZM22.83 3.28L29.89 10.33L22.83 10.33L22.83 3.28ZM2.17 39.67L2.17 2.33L21.5 2.33L21.5 11.67L30.83 11.67L30.83 39.67L2.17 39.67ZM7.5 12.33L13.5 12.33C13.87 12.33 14.17 12.03 14.17 11.67C14.17 11.3 13.87 11 13.5 11L7.5 11C7.13 11 6.83 11.3 6.83 11.67C6.83 12.03 7.13 12.33 7.5 12.33ZM7.5 17.67L10.83 17.67C11.2 17.67 11.5 17.37 11.5 17C11.5 16.63 11.2 16.33 10.83 16.33L7.5 16.33C7.13 16.33 6.83 16.63 6.83 17C6.83 17.37 7.13 17.67 7.5 17.67ZM17.5 17.67L22.17 17.67C22.54 17.67 22.83 17.37 22.83 17C22.83 16.63 22.54 16.33 22.17 16.33L17.5 16.33C17.13 16.33 16.83 16.63 16.83 17C16.83 17.37 17.13 17.67 17.5 17.67ZM13.69 16.53C13.57 16.65 13.5 16.83 13.5 17C13.5 17.17 13.57 17.35 13.69 17.47C13.82 17.59 13.99 17.67 14.17 17.67C14.34 17.67 14.51 17.6 14.64 17.47C14.76 17.35 14.83 17.17 14.83 17C14.83 16.83 14.76 16.65 14.64 16.53C14.39 16.28 13.94 16.28 13.69 16.53ZM25.5 17.67C25.67 17.67 25.85 17.59 25.97 17.47C26.09 17.35 26.17 17.17 26.17 17C26.17 16.83 26.09 16.65 25.97 16.53C25.72 16.28 25.28 16.28 25.03 16.53C24.91 16.65 24.83 16.83 24.83 17C24.83 17.17 24.91 17.35 25.03 17.47C25.15 17.59 25.33 17.67 25.5 17.67ZM15.5 21.67L10.83 21.67C10.46 21.67 10.17 21.96 10.17 22.33C10.17 22.7 10.46 23 10.83 23L15.5 23C15.87 23 16.17 22.7 16.17 22.33C16.17 21.96 15.87 21.67 15.5 21.67ZM7.5 23C7.67 23 7.85 22.93 7.97 22.81C8.1 22.68 8.17 22.51 8.17 22.33C8.17 22.16 8.1 21.99 7.97 21.86C7.72 21.61 7.28 21.61 7.03 21.86C6.9 21.99 6.83 22.15 6.83 22.33C6.83 22.51 6.91 22.68 7.03 22.81C7.15 22.93 7.33 23 7.5 23ZM9.6 27.78C8.14 28.54 7.64 29.99 7.47 31.5C7.19 31.27 6.91 31.04 6.64 30.81C5.98 30.26 5.04 31.2 5.69 31.75C6.32 32.27 6.94 32.79 7.57 33.32C8 33.68 8.68 33.45 8.7 32.85C8.75 31.4 8.82 29.68 10.27 28.93C11.03 28.53 10.36 27.38 9.6 27.78ZM14.03 30.44C13.11 30.65 12.06 31.83 11.41 30.51C11.03 29.74 9.88 30.41 10.25 31.18C10.6 31.88 11.25 32.37 12.03 32.47C12.43 32.52 12.79 32.46 13.16 32.32C13.43 32.21 14.45 31.45 14.67 31.84C15.09 32.59 16.24 31.92 15.82 31.17C15.46 30.53 14.74 30.27 14.03 30.44ZM27.66 24.01C27.51 23.95 27.44 23.84 27.41 23.77C27.39 23.71 27.35 23.57 27.42 23.42C27.75 22.74 27.61 21.96 27.08 21.42C26.54 20.89 25.76 20.76 25.08 21.08C24.93 21.15 24.79 21.11 24.73 21.09C24.66 21.06 24.55 20.99 24.49 20.84C24.24 20.13 23.59 19.67 22.83 19.67C22.08 19.67 21.43 20.13 21.18 20.84C21.12 20.99 21 21.06 20.94 21.09C20.87 21.11 20.74 21.15 20.59 21.08C19.91 20.76 19.13 20.89 18.59 21.42C18.06 21.96 17.92 22.74 18.25 23.42C18.32 23.57 18.28 23.71 18.25 23.77C18.23 23.84 18.16 23.95 18 24.01C17.29 24.26 16.83 24.91 16.83 25.67C16.83 26.42 17.29 27.07 18 27.32C18.16 27.38 18.23 27.5 18.25 27.56C18.28 27.63 18.32 27.76 18.25 27.91C17.92 28.59 18.06 29.38 18.59 29.91C18.85 30.17 19.17 30.33 19.5 30.4L19.5 38.61L22.83 35.28L26.17 38.61L26.17 30.39C26.5 30.33 26.82 30.17 27.08 29.91C27.61 29.38 27.75 28.59 27.42 27.91C27.35 27.76 27.39 27.63 27.41 27.56C27.44 27.5 27.51 27.38 27.66 27.32C28.38 27.07 28.83 26.42 28.83 25.67C28.83 24.91 28.38 24.26 27.66 24.01ZM22.83 33.39L20.83 35.39L20.83 30.22C20.84 30.22 20.85 30.22 20.85 30.22C20.88 30.23 20.92 30.24 20.94 30.25C20.97 30.26 21.02 30.28 21.06 30.32C21.1 30.36 21.15 30.42 21.18 30.5C21.43 31.21 22.08 31.67 22.83 31.67C23.59 31.67 24.24 31.21 24.49 30.5C24.52 30.42 24.56 30.36 24.61 30.32C24.65 30.28 24.7 30.26 24.73 30.25C24.75 30.24 24.78 30.23 24.82 30.22C24.82 30.22 24.83 30.22 24.83 30.22L24.83 35.39L22.83 33.39ZM27.22 26.07C26.75 26.23 26.37 26.59 26.18 27.05C25.99 27.51 26 28.03 26.22 28.48C26.33 28.73 26.2 28.9 26.13 28.97C26.08 29.02 25.95 29.12 25.76 29.08L25.61 29.03C25.55 29.01 25.49 28.99 25.43 28.97C25.38 28.96 25.33 28.94 25.29 28.93C25.22 28.91 25.15 28.91 25.09 28.9C25.03 28.9 24.98 28.88 24.93 28.88C24.86 28.88 24.8 28.89 24.73 28.9C24.68 28.9 24.62 28.9 24.57 28.91C24.45 28.93 24.33 28.97 24.22 29.01C24.22 29.01 24.22 29.01 24.22 29.02L24.22 29.02C24.19 29.03 24.16 29.05 24.14 29.06C24.05 29.1 23.97 29.14 23.89 29.19C23.8 29.25 23.72 29.33 23.65 29.4C23.64 29.41 23.63 29.42 23.62 29.43C23.45 29.61 23.32 29.82 23.23 30.05C23.14 30.31 22.92 30.33 22.83 30.33C22.74 30.33 22.52 30.31 22.43 30.05C22.35 29.82 22.22 29.6 22.05 29.43C22.04 29.42 22.03 29.42 22.03 29.41C21.95 29.33 21.86 29.25 21.77 29.19C21.7 29.14 21.62 29.1 21.54 29.06C21.51 29.05 21.48 29.03 21.45 29.01L21.45 29.01C21.45 29.01 21.45 29.01 21.45 29.01C21.43 29.01 21.42 29.01 21.4 29C21.31 28.96 21.21 28.93 21.11 28.91C21.03 28.9 20.94 28.89 20.86 28.89C20.83 28.89 20.8 28.88 20.77 28.88C20.77 28.88 20.77 28.88 20.77 28.88C20.52 28.88 20.28 28.93 20.07 29.03L19.92 29.08C19.73 29.12 19.59 29.02 19.53 28.97C19.47 28.9 19.33 28.73 19.45 28.48C19.66 28.03 19.68 27.51 19.49 27.05C19.3 26.59 18.92 26.23 18.45 26.07C18.19 25.98 18.17 25.76 18.17 25.67C18.17 25.58 18.19 25.36 18.45 25.26C18.92 25.1 19.3 24.74 19.49 24.28C19.68 23.82 19.66 23.3 19.45 22.85C19.33 22.61 19.47 22.43 19.53 22.37C19.6 22.3 19.77 22.17 20.02 22.28C20.47 22.5 20.99 22.51 21.45 22.32C21.91 22.13 22.27 21.75 22.43 21.28C22.52 21.03 22.74 21 22.83 21C22.92 21 23.14 21.03 23.24 21.28C23.4 21.75 23.76 22.13 24.22 22.32C24.68 22.51 25.2 22.5 25.65 22.28C25.89 22.17 26.07 22.3 26.13 22.37C26.2 22.43 26.34 22.61 26.22 22.85C26.01 23.3 25.99 23.82 26.18 24.28C26.37 24.74 26.75 25.1 27.22 25.27C27.47 25.36 27.5 25.58 27.5 25.67C27.5 25.76 27.47 25.98 27.22 26.07Z" />
</svg>