<svg xmlns="http://www.w3.org/2000/svg" viewBox="0 0 43 41" width="43" height="41">
	<style>
		tspan { white-space:pre }
		.shp0 { fill: #ffffff } 
	</style>
	<path id="Forma 1" class="shp0" d="M27.47 28.23L27.47 27.51C27.68 27.34 27.88 27.16 28.07 26.97C29.59 25.3 30.54 23.19 30.8 20.95C32.17 20.74 33.4 20.01 34.24 18.91C35.38 17.29 35.48 14.96 34.53 12.03C34.47 11.86 34.36 11.72 34.21 11.62L33.78 11.33C33.84 8.69 32.93 6.12 31.21 4.11C29.09 1.72 25.82 0.51 21.5 0.49C17.18 0.49 13.9 1.72 11.78 4.08C10.06 6.09 9.15 8.66 9.22 11.3L8.78 11.59C8.63 11.69 8.52 11.83 8.46 12C7.51 14.94 7.61 17.26 8.76 18.88C9.59 19.98 10.82 20.72 12.19 20.94C12.45 23.19 13.41 25.29 14.93 26.97C15.12 27.16 15.32 27.34 15.53 27.51L15.53 28.23C12.5 28.82 0.41 31.66 0.61 39.72C0.61 40.15 0.97 40.51 1.4 40.51L41.6 40.51C42.03 40.51 42.39 40.15 42.39 39.72C42.59 31.66 30.5 28.82 27.47 28.23ZM11.71 19.18C11.04 18.95 10.46 18.52 10.04 17.95L10.08 17.96C9.29 16.81 9.22 15.06 9.92 12.75L10.5 12.36C10.74 12.2 10.87 11.92 10.84 11.63C10.71 9.27 11.48 6.94 13 5.12C14.78 3.1 17.65 2.09 21.5 2.07C25.34 2.06 28.21 3.1 30.03 5.12C31.54 6.94 32.31 9.27 32.18 11.63C32.15 11.92 32.28 12.2 32.53 12.36L33.1 12.75C33.81 15.05 33.76 16.81 32.95 17.96C32.52 18.53 31.94 18.96 31.26 19.18C32.22 18.1 32.68 16.67 32.55 15.23C32.4 14.37 31.95 13.58 31.28 13.02C30.94 5.12 25.39 4.23 23.01 4.23C22.5 4.23 22 4.27 21.5 4.34C21 4.27 20.49 4.23 19.99 4.23C17.61 4.23 12.08 5.1 11.71 13.02C11.04 13.58 10.58 14.36 10.43 15.22C10.29 16.66 10.76 18.09 11.71 19.18ZM29.7 12.7C26.39 12.89 23.09 12.06 20.25 10.32C19.93 10.1 19.5 10.14 19.23 10.43C17.64 12.13 14.76 12.52 13.37 12.61C13.79 7.02 17.18 5.8 20.03 5.8C20.48 5.8 20.93 5.84 21.38 5.91C21.48 5.94 21.59 5.94 21.69 5.91C22.14 5.84 22.59 5.8 23.05 5.8C25.87 5.8 29.27 7.05 29.66 12.69L29.7 12.7ZM13.64 19.33L13.68 19.33C13.68 19.14 13.61 18.95 13.48 18.8C12.39 17.56 11.9 16.43 12.03 15.5C12.09 14.98 12.35 14.51 12.75 14.17C13.79 14.17 17.49 13.97 19.87 11.92C22.54 13.46 25.56 14.27 28.64 14.29C29.17 14.29 29.71 14.29 30.27 14.2C30.66 14.54 30.91 15 30.99 15.5C31.12 16.42 30.62 17.56 29.54 18.8C29.41 18.95 29.34 19.14 29.34 19.33C29.34 19.33 29.34 19.49 29.34 19.75L24.74 22.21C23.82 21.35 22.38 21.39 21.52 22.3C20.65 23.21 20.69 24.65 21.61 25.52C22.52 26.38 23.96 26.34 24.83 25.43C25.23 25.01 25.45 24.45 25.45 23.86C25.45 23.79 25.45 23.72 25.45 23.65L29.08 21.71C28.77 23.26 28.03 24.71 26.96 25.88C25.56 27.23 23.66 27.94 21.72 27.84L21.32 27.84C19.38 27.93 17.49 27.23 16.09 25.89C13.59 23.4 13.64 19.37 13.64 19.33ZM23.87 23.86C23.87 24.25 23.55 24.57 23.16 24.57C22.78 24.57 22.46 24.25 22.46 23.86C22.46 23.47 22.78 23.16 23.16 23.16C23.55 23.16 23.87 23.47 23.87 23.86ZM20.71 38.88L2.22 38.88C2.84 32.94 12.5 30.46 15.52 29.82L15.52 31.24C15.52 33.03 17.7 34.4 20.71 34.63L20.71 38.88ZM17.1 31.24L17.1 31.21L17.1 28.51C18.41 29.12 19.85 29.42 21.3 29.39L21.69 29.39C23.14 29.42 24.58 29.12 25.89 28.51L25.89 31.24C25.89 31.99 24.18 33.07 21.5 33.07C18.82 33.07 17.1 31.99 17.1 31.24ZM22.29 38.9L22.29 34.62C25.29 34.41 27.47 33.04 27.47 31.23L27.47 29.85C30.52 30.48 40.13 32.96 40.77 38.9L22.29 38.9L22.29 38.9Z" />
</svg>