<svg xmlns="http://www.w3.org/2000/svg" viewBox="0 0 41 42" width="41" height="42">
	<style>
		tspan { white-space:pre }
		.shp0 { fill: #fcb13b } 
	</style>
	<path id="Forma 1" class="shp0" d="M1.18 34.71C-0.29 36.18 -0.29 38.57 1.18 40.05C1.91 40.78 2.87 41.15 3.82 41.15C4.78 41.15 5.74 40.78 6.47 40.05L18.77 27.65L13.47 22.31L1.18 34.71ZM31.9 11.74L37.25 8.94L40.06 3.48L37.45 0.85L32.03 3.68L29.26 9.07L22.74 15.64L25.38 18.31L31.9 11.74ZM33.07 26.07L32.57 26.01C31.66 26.01 30.79 26.2 29.98 26.5L14.61 11.01C14.91 10.19 15.1 9.32 15.1 8.4L15.05 7.89C14.78 3.96 11.57 0.85 7.61 0.85C6.45 0.85 5.37 1.13 4.4 1.6L9.37 6.62C9.63 6.88 9.81 7.19 9.93 7.52C10.26 8.42 10.08 9.46 9.37 10.18C8.88 10.67 8.24 10.91 7.61 10.91C7.31 10.91 7.02 10.85 6.74 10.74C6.41 10.62 6.1 10.44 5.84 10.18L0.87 5.16C0.4 6.15 0.12 7.23 0.12 8.4C0.12 12.39 3.2 15.63 7.1 15.9L7.61 15.95C8.52 15.95 9.39 15.76 10.2 15.46L25.57 30.95C25.27 31.77 25.08 32.64 25.08 33.56L25.13 34.07C25.4 38 28.61 41.11 32.57 41.11C33.72 41.11 34.81 40.83 35.78 40.36L30.8 35.34C30.54 35.08 30.36 34.77 30.24 34.44C29.91 33.54 30.09 32.5 30.8 31.78C31.29 31.29 31.93 31.05 32.57 31.05C32.86 31.05 33.16 31.11 33.44 31.22C33.76 31.34 34.07 31.52 34.33 31.78L39.31 36.8C39.78 35.82 40.06 34.73 40.06 33.56C40.06 29.57 36.97 26.33 33.07 26.07Z" />
</svg>