<svg xmlns="http://www.w3.org/2000/svg" viewBox="0 0 40 26" width="40" height="26">
	<style>
		tspan { white-space:pre }
		.shp0 { fill: #ffffff } 
	</style>
	<path id="Forma 1" class="shp0" d="M26.89 14.62L23.49 13.11C23.25 13 23.09 12.76 23.09 12.5L23.09 11.56C24.23 10.65 24.97 9.25 24.97 7.67L24.97 6.36C25.34 6.15 25.59 5.74 25.59 5.29L25.59 5.17C25.59 2.42 23.37 0.19 20.63 0.19L19.37 0.19C16.63 0.19 14.41 2.42 14.41 5.17L14.41 6.33C14.41 6.72 14.58 7.08 14.87 7.31C14.92 7.35 14.98 7.38 15.03 7.41L15.03 7.67C15.03 9.25 15.77 10.65 16.91 11.56L16.91 12.5C16.91 12.76 16.75 13 16.51 13.11L13.11 14.62C12 15.12 11.28 16.23 11.28 17.45L11.28 25.22C11.28 25.55 11.54 25.81 11.86 25.81C12.18 25.81 12.45 25.55 12.45 25.22L12.45 17.45C12.45 17.38 12.45 17.31 12.46 17.25L14.03 18.82C14.27 19.06 14.41 19.39 14.41 19.73L14.41 25.22C14.41 25.55 14.67 25.81 14.99 25.81C15.32 25.81 15.58 25.55 15.58 25.22L15.58 19.73C15.58 19.07 15.32 18.45 14.86 17.99L12.99 16.12C13.15 15.94 13.36 15.8 13.59 15.69L16.93 14.21L19.41 16.69L19.41 25.22C19.41 25.55 19.68 25.81 20 25.81C20.32 25.81 20.59 25.55 20.59 25.22L20.59 16.69L23.07 14.21L26.41 15.69C26.64 15.8 26.85 15.94 27.01 16.12L25.14 17.99C24.68 18.45 24.42 19.07 24.42 19.73L24.42 25.22C24.42 25.55 24.69 25.81 25.01 25.81C25.33 25.81 25.59 25.55 25.59 25.22L25.59 19.73C25.59 19.39 25.73 19.06 25.97 18.82L27.54 17.25C27.55 17.31 27.55 17.38 27.55 17.45L27.55 25.22C27.55 25.55 27.82 25.81 28.14 25.81C28.46 25.81 28.72 25.55 28.72 25.22L28.72 17.45C28.72 16.23 28 15.12 26.89 14.62ZM20 15.62L17.82 13.44C17.99 13.16 18.08 12.84 18.08 12.5L18.08 12.26C18.67 12.51 19.32 12.65 20 12.65C20.68 12.65 21.33 12.51 21.92 12.26L21.92 12.5C21.92 12.84 22.01 13.16 22.18 13.44L20 15.62ZM20 11.47C17.91 11.47 16.2 9.77 16.2 7.67L16.2 7.41C16.57 7.26 16.93 7.03 17.27 6.72C17.5 6.5 17.52 6.13 17.3 5.89C17.08 5.65 16.71 5.64 16.47 5.86C16.18 6.13 15.89 6.3 15.6 6.38C15.6 6.38 15.59 6.38 15.59 6.38C15.58 6.37 15.58 6.35 15.58 6.33L15.58 5.17C15.58 3.07 17.28 1.36 19.37 1.36L20.63 1.36C22.72 1.36 24.42 3.07 24.42 5.17L24.42 5.29C24.42 5.31 24.41 5.33 24.4 5.33C20.89 6.03 19.13 4.72 18.54 4.12C18.31 3.9 17.94 3.9 17.71 4.12C17.48 4.35 17.48 4.72 17.71 4.95C19.53 6.77 22.18 6.81 23.8 6.61L23.8 7.67C23.8 9.77 22.09 11.47 20 11.47ZM10.57 11.43L10.57 10.18C10.57 8.65 9.77 7.3 8.58 6.53C8.65 6.29 8.69 6.04 8.69 5.79C8.69 4.43 7.59 3.33 6.23 3.33C4.87 3.33 3.76 4.43 3.76 5.79C3.76 6.05 3.8 6.29 3.88 6.53C2.68 7.3 1.88 8.65 1.88 10.18L1.88 11.43C1.88 12.91 2.63 14.22 3.76 15.01L3.76 16.3C3.76 16.55 3.62 16.78 3.39 16.9L1.37 17.91C0.53 18.33 0.01 19.18 0.01 20.12L0.01 25.22C0.01 25.55 0.27 25.81 0.59 25.81C0.92 25.81 1.18 25.55 1.18 25.22L1.18 20.37L2.13 21.33C2.38 21.57 2.51 21.89 2.51 22.24L2.51 25.22C2.51 25.55 2.77 25.81 3.1 25.81C3.42 25.81 3.68 25.55 3.68 25.22L3.68 22.24C3.68 21.58 3.43 20.96 2.96 20.5L1.63 19.17C1.63 19.16 1.62 19.15 1.61 19.15C1.7 19.07 1.79 19.01 1.89 18.96L3.92 17.94C4.02 17.89 4.12 17.83 4.21 17.76L5.64 19.2L5.64 25.22C5.64 25.55 5.9 25.81 6.23 25.81C6.55 25.81 6.81 25.55 6.81 25.22L6.81 19.2L8.24 17.76C8.33 17.83 8.43 17.89 8.54 17.94L9.09 18.22C9.18 18.27 9.27 18.29 9.36 18.29C9.57 18.29 9.78 18.17 9.88 17.96C10.02 17.67 9.91 17.32 9.62 17.18L9.06 16.9C8.83 16.78 8.69 16.55 8.69 16.3L8.69 15.01C9.82 14.22 10.57 12.91 10.57 11.43ZM6.23 4.5C6.94 4.5 7.52 5.08 7.52 5.79C7.52 5.87 7.51 5.95 7.5 6.02C7.1 5.9 6.67 5.83 6.23 5.83C5.78 5.83 5.36 5.9 4.96 6.02C4.94 5.95 4.93 5.87 4.93 5.79C4.93 5.08 5.51 4.5 6.23 4.5ZM6.23 7.01C7.97 7.01 9.4 8.43 9.4 10.18L9.4 10.39C6.96 11.14 5.51 9.28 5.44 9.2C5.34 9.06 5.19 8.98 5.02 8.97C4.85 8.96 4.68 9.02 4.56 9.14C4 9.7 3.45 9.97 3.06 10.1C3.1 8.39 4.51 7.01 6.23 7.01ZM6.23 18.12L4.87 16.77C4.91 16.62 4.93 16.46 4.93 16.3L4.93 15.58C5.34 15.71 5.78 15.78 6.23 15.78C6.68 15.78 7.11 15.71 7.52 15.58L7.52 16.3C7.52 16.46 7.54 16.62 7.58 16.77L6.23 18.12ZM6.23 14.61C4.48 14.61 3.06 13.18 3.06 11.43L3.06 11.31C3.52 11.2 4.22 10.95 4.94 10.37C5.19 10.61 5.56 10.91 6.02 11.16C6.57 11.46 7.33 11.74 8.26 11.74C8.62 11.74 8.99 11.7 9.39 11.61C9.3 13.28 7.92 14.61 6.23 14.61ZM38.63 16.66L35.35 15.02C35.13 14.9 34.99 14.67 34.99 14.42L34.99 13.59C35.75 12.91 36.24 11.91 36.24 10.81L36.24 10.14C36.25 10.14 36.26 10.14 36.28 10.14C36.6 10.14 36.86 9.88 36.86 9.55L36.86 8.3C36.86 6.25 35.2 4.58 33.15 4.58L31.9 4.58C29.85 4.58 28.18 6.25 28.18 8.3L28.18 9.55C28.18 9.88 28.44 10.14 28.76 10.14C28.77 10.14 28.78 10.14 28.81 10.14L28.81 10.81C28.81 11.91 29.29 12.91 30.06 13.59L30.06 14.42C30.06 14.67 29.92 14.9 29.69 15.02C29.4 15.16 29.28 15.51 29.43 15.8C29.53 16.01 29.74 16.13 29.95 16.13C30.04 16.13 30.13 16.11 30.21 16.06C30.32 16.01 30.41 15.95 30.5 15.88L31.94 17.32L31.94 25.22C31.94 25.55 32.2 25.81 32.52 25.81C32.84 25.81 33.11 25.55 33.11 25.22L33.11 17.32L34.54 15.88C34.63 15.95 34.73 16.01 34.83 16.06L38 17.65L37.04 18.62C36.57 19.08 36.32 19.7 36.32 20.36L36.32 25.22C36.32 25.55 36.58 25.81 36.9 25.81C37.23 25.81 37.49 25.55 37.49 25.22L37.49 20.36C37.49 20.01 37.62 19.69 37.87 19.44L38.78 18.53C38.81 18.64 38.82 18.75 38.82 18.86L38.82 25.22C38.82 25.55 39.08 25.81 39.41 25.81C39.73 25.81 39.99 25.55 39.99 25.22L39.99 18.86C39.99 17.92 39.47 17.08 38.63 16.66ZM29.35 8.85L29.35 8.3L29.35 8.3C29.35 6.89 30.49 5.75 31.9 5.75L33.15 5.75C34.55 5.75 35.69 6.89 35.69 8.3L35.69 8.95C33.15 8.81 31.61 7.82 31.59 7.81C31.49 7.75 31.38 7.71 31.27 7.71C31.12 7.71 30.97 7.77 30.85 7.88C30.29 8.45 29.75 8.72 29.35 8.85ZM32.52 16.24L31.17 14.89C31.21 14.74 31.23 14.58 31.23 14.42L31.23 14.29C31.63 14.44 32.07 14.53 32.52 14.53C32.98 14.53 33.41 14.44 33.81 14.29L33.81 14.42C33.81 14.58 33.84 14.74 33.87 14.89L32.52 16.24ZM32.52 13.35C31.12 13.35 29.98 12.21 29.98 10.81L29.98 9.86L29.98 9.86C30.39 9.7 30.86 9.44 31.35 9.02C31.97 9.34 33.25 9.9 35.07 10.08L35.07 10.81C35.07 12.21 33.92 13.35 32.52 13.35Z" />
</svg>