<svg xmlns="http://www.w3.org/2000/svg" viewBox="0 0 44 42" width="44" height="42">
	<style>
		tspan { white-space:pre }
		.shp0 { fill: #fcb13b } 
	</style>
	<path id="Shape 1" class="shp0" d="M35.2,14.63h-5.54v6.37h-6.37v5.54h6.37v6.37h5.54v-6.37h6.37v-5.54h-6.37zM20.52,18.23h6.37v-6.37h11.08v6.37h3.21c1.15,-1.85 1.82,-3.94 1.82,-6.24c0,-6.4 -5.18,-11.59 -11.58,-11.59c-3.89,0 -7.32,1.91 -9.42,4.85c-2.1,-2.94 -5.54,-4.85 -9.42,-4.85c-6.4,0 -11.58,5.19 -11.58,11.58c0,2.78 0.98,5.33 2.61,7.33l18.39,22.27l4.89,-5.93v-6.36h-6.37z" />
</svg>