<svg xmlns="http://www.w3.org/2000/svg" viewBox="0 0 40 30" width="40" height="30">
	<style>
		tspan { white-space:pre }
		.shp0 { fill: #fcb13b } 
	</style>
	<path id="Forma 1" class="shp0" d="M39.99 17.41L35.27 27.25C34.68 28.39 33.5 29.11 32.21 29.11L4.38 29.11C3.87 29.11 3.54 28.57 3.77 28.11L3.78 28.09C4.16 27.34 3.93 26.43 3.25 25.94L3.21 25.92C1.63 24.79 0.7 22.96 0.7 21.02L0.7 18.79L25.47 18.79L25.47 18.77C25.47 18.02 26.08 17.41 26.84 17.41L39.99 17.41L39.99 17.41ZM24.1 9.15L19.28 9.15C18.9 9.15 18.59 9.46 18.59 9.84L18.59 17.41C18.59 17.79 18.9 18.1 19.28 18.1L24.1 18.1C24.48 18.1 24.78 17.79 24.78 17.41L24.78 9.84C24.78 9.46 24.48 9.15 24.1 9.15ZM32.35 11.9L26.85 11.9C26.47 11.9 26.16 12.21 26.16 12.59L26.16 15.34C26.16 15.72 26.47 16.03 26.85 16.03L32.35 16.03C32.73 16.03 33.04 15.72 33.04 15.34L33.04 12.59C33.04 12.21 32.73 11.9 32.35 11.9ZM11.02 18.1L16.53 18.1C16.91 18.1 17.21 17.79 17.21 17.41L17.21 11.9C17.21 11.52 16.91 11.21 16.53 11.21L11.02 11.21C10.64 11.21 10.33 11.52 10.33 11.9L10.33 17.41C10.33 17.79 10.64 18.1 11.02 18.1ZM10.67 7.77L8.95 9.15L8.95 18.1L2.07 18.1L2.07 9.15L0.01 9.15L0.01 7.77L4.83 7.77L4.83 5.78L3.05 5.78L3.05 4.97L4.83 4.97L4.83 0.89L5.51 0.89L5.51 4.97L7.29 4.97L7.29 5.78L5.51 5.78L5.51 7.77L10.67 7.77ZM7.71 13.44L5.47 13.44L5.47 15.49L7.71 15.49L7.71 13.44ZM7.71 10.14L5.47 10.14L5.47 12.2L7.71 12.2L7.71 10.14Z" />
</svg>