<svg xmlns="http://www.w3.org/2000/svg" viewBox="0 0 51 41" width="51" height="41">
	<style>
		tspan { white-space:pre }
		.shp0 { fill: #fcb13b } 
	</style>
	<path id="Forma 1" class="shp0" d="M25.5,8.59l-17.91,14.76c0,0.02 -0.01,0.05 -0.02,0.09c-0.01,0.04 -0.02,0.07 -0.02,0.09v14.95c0,0.54 0.2,1.01 0.59,1.4c0.39,0.39 0.86,0.59 1.4,0.59h11.96v-11.96h7.97v11.96h11.96c0.54,0 1.01,-0.2 1.4,-0.59c0.39,-0.39 0.59,-0.86 0.59,-1.4v-14.95c0,-0.08 -0.01,-0.15 -0.03,-0.19zM50.26,19.99l-6.82,-5.67v-12.71c0,-0.29 -0.09,-0.53 -0.28,-0.72c-0.19,-0.19 -0.42,-0.28 -0.72,-0.28h-5.98c-0.29,0 -0.53,0.09 -0.72,0.28c-0.19,0.19 -0.28,0.43 -0.28,0.72v6.07l-7.6,-6.35c-0.66,-0.54 -1.45,-0.81 -2.37,-0.81c-0.91,0 -1.7,0.27 -2.37,0.81l-22.39,18.65c-0.21,0.17 -0.32,0.39 -0.34,0.67c-0.02,0.28 0.05,0.52 0.22,0.73l1.93,2.3c0.17,0.19 0.38,0.3 0.65,0.34c0.25,0.02 0.5,-0.05 0.75,-0.22l21.55,-17.97l21.55,17.97c0.17,0.14 0.38,0.22 0.65,0.22h0.09c0.27,-0.04 0.49,-0.16 0.65,-0.34l1.93,-2.3c0.17,-0.21 0.24,-0.45 0.22,-0.73c-0.02,-0.28 -0.14,-0.5 -0.34,-0.67z" />
</svg>