<svg xmlns="http://www.w3.org/2000/svg" viewBox="0 0 46 41" width="46" height="41">
	<style>
		tspan { white-space:pre }
		.shp0 { fill: #fcb13b } 
	</style>
	<path id="Forma 1" class="shp0" d="M43.07 27.5L38.42 13.03L37.24 13.03L37.24 12.24C39.54 11.68 39.58 9.41 39.58 9.41C39.58 9.41 38.71 10.43 37.24 10.83L37.24 10.2L36.32 10.2L36.32 10.98C36.28 10.98 36.25 10.99 36.21 10.99C34.11 11.04 33.17 7.57 30.53 7.57C28.07 7.57 25.33 9.03 23.56 9.23L23.56 5.29C24.81 5.09 25.77 4.02 25.77 2.72C25.78 1.28 24.6 0.11 23.16 0.11C21.72 0.11 20.54 1.28 20.54 2.72C20.54 4.09 21.62 5.21 22.97 5.31L22.97 9.21C21.2 8.93 18.57 7.57 16.2 7.57C13.56 7.57 12.62 11.04 10.52 10.99C10.35 10.99 10.2 10.96 10.04 10.94L10.04 10.2L9.12 10.2L9.12 10.73C7.87 10.27 7.15 9.41 7.15 9.41C7.15 9.41 7.19 11.42 9.12 12.12L9.12 13.03L7.94 13.03L3.21 27.5L0.5 27.5C0.5 27.5 2.44 31.2 9.4 31.2C16.35 31.2 18.29 27.5 18.29 27.5L15.86 27.5L11.22 13.03L10.04 13.03L10.04 12.34C10.22 12.36 10.42 12.37 10.63 12.37C14.05 12.37 14.56 10.2 16.46 10.2C18.16 10.2 20.15 12.31 22.61 12.74C22.72 12.77 23.23 12.73 23.08 12.77L23 20.88L21.44 24.03L21.49 33.54L17.2 33.54L17.2 35.23L13.75 40.89L33.38 40.89L29.16 35.15L29.16 33.54L25.4 33.54L25.4 24.12L23.82 20.8L23.82 12.75C23.96 12.75 23.96 12.78 24.12 12.74C26.58 12.31 28.57 10.2 30.28 10.2C32.17 10.2 32.68 12.37 36.1 12.37C36.18 12.37 36.25 12.36 36.32 12.36L36.32 13.03L35.14 13.03L30.41 27.5L27.7 27.5C27.7 27.5 29.65 31.2 36.6 31.2C43.56 31.2 45.5 27.5 45.5 27.5L43.07 27.5ZM9.12 27.5L4.18 27.5L8.61 13.95L9.12 13.95L9.12 27.5ZM10.55 13.95L14.9 27.5L10.04 27.5L10.04 13.95L10.55 13.95ZM36.32 27.5L31.38 27.5L35.81 13.95L36.32 13.95L36.32 27.5L36.32 27.5ZM37.24 27.5L37.24 13.95L37.75 13.95L42.1 27.5L37.24 27.5L37.24 27.5Z" />
</svg>